<?xml version="1.0" encoding="utf-8"?>
<!-- Generator: Adobe Illustrator 15.1.0, SVG Export Plug-In . SVG Version: 6.00 Build 0)  -->
<!DOCTYPE svg PUBLIC "-//W3C//DTD SVG 1.1//EN" "http://www.w3.org/Graphics/SVG/1.1/DTD/svg11.dtd">
<svg version="1.1" id="Layer_1" xmlns="http://www.w3.org/2000/svg" xmlns:xlink="http://www.w3.org/1999/xlink" x="0px" y="0px"
	 width="141.732px" height="141.732px" viewBox="70.866 70.866 141.732 141.732"
	 enable-background="new 70.866 70.866 141.732 141.732" xml:space="preserve">
<path fill="#DD4814" d="M141.734,198.425c-15.143,0-29.38-5.897-40.087-16.606c-10.709-10.707-16.607-24.942-16.607-40.084
	c0-15.143,5.898-29.379,16.607-40.088c10.708-10.708,24.944-16.605,40.087-16.605s29.379,5.897,40.087,16.605
	c10.706,10.708,16.604,24.944,16.604,40.088c0,15.143-5.897,29.379-16.604,40.086C171.113,192.525,156.877,198.425,141.734,198.425
	L141.734,198.425z M141.734,99.213c-11.357,0-22.035,4.423-30.066,12.454c-8.032,8.032-12.456,18.709-12.456,30.066
	c0,11.356,4.424,22.033,12.456,30.064c8.031,8.032,18.709,12.454,30.066,12.454s22.034-4.422,30.065-12.453
	c8.032-8.03,12.454-18.708,12.454-30.065c0-11.358-4.422-22.036-12.454-30.066C163.768,103.636,153.091,99.213,141.734,99.213
	L141.734,99.213z M166.809,121.893c-3.177-3.175-7.398-4.924-11.891-4.924c-4.493,0-8.716,1.75-11.893,4.926
	c-0.476,0.475-0.917,0.974-1.327,1.496c-0.409-0.521-0.851-1.021-1.326-1.495c-3.176-3.177-7.4-4.926-11.892-4.926
	c-4.492,0-8.715,1.749-11.892,4.925c-6.556,6.557-6.556,17.227-0.012,23.771l22.57,22.794c0.665,0.671,1.57,1.049,2.515,1.049
	c0.001,0,0.002,0,0.003,0c0.943,0,1.85-0.376,2.514-1.046l22.629-22.785C173.365,139.12,173.365,128.45,166.809,121.893z"/>
</svg>
